<svg xmlns="http://www.w3.org/2000/svg" xmlns:xlink="http://www.w3.org/1999/xlink" viewBox="0 0 227.46716 328.33383">
  <defs>
    <style>
      .cls-1 {
        isolation: isolate;
      }

      .cls-2 {
        fill: #0277b5;
      }

      .cls-3,
      .cls-4,
      .cls-6,
      .cls-7 {
        mix-blend-mode: multiply;
        opacity: 0.5;
      }

      .cls-3 {
        fill: url(#linear-gradient);
      }

      .cls-4 {
        fill: url(#linear-gradient-2);
      }

      .cls-5 {
        fill: #1b3443;
      }

      .cls-6 {
        fill: url(#linear-gradient-3);
      }

      .cls-7 {
        fill: url(#linear-gradient-4);
      }
    </style>
    <linearGradient id="linear-gradient" x1="51.51036" y1="189.36055" x2="155.2003" y2="161.82537"
      gradientUnits="userSpaceOnUse">
      <stop offset="0.31241" stop-color="#fff" />
      <stop offset="0.96362" stop-color="#023e89" />
    </linearGradient>
    <linearGradient id="linear-gradient-2" x1="146.02684" y1="12.65217" x2="185.96087" y2="120.2507"
      gradientUnits="userSpaceOnUse">
      <stop offset="0.23299" stop-color="#fff" />
      <stop offset="0.96362" stop-color="#023e89" />
    </linearGradient>
    <linearGradient id="linear-gradient-3" x1="7.01442" y1="260.03145" x2="33.79741" y2="180.95785"
      xlink:href="#linear-gradient-2" />
    <linearGradient id="linear-gradient-4" x1="134.10015" y1="108.45387" x2="68.41805" y2="140.97607"
      xlink:href="#linear-gradient-2" />
  </defs>
  <g class="cls-1">
    <g id="Layer_2" data-name="Layer 2">
      <g id="Layer_1-2" data-name="Layer 1">
        <path class="cls-2"
          d="M193.92155,133.60815h-.023v-.02286c-.046-.046-.11485-.092-.20685-.18385a112.689,112.689,0,0,0-33.132-22.63192c-.988-.45941-1.976-.87311-2.91806-1.26367h-.023v-.023c-.06886,0-.11485-.04586-.18371-.06886a112.18248,112.18248,0,0,0-42.82819-8.45533h-1.65438c-2.0908,0-4.1816.04586-6.22654.16085a112.21046,112.21046,0,0,0-60.54311,21.78166v.023A113.28773,113.28773,0,0,0,16.704,154.93039v.023A112.009,112.009,0,0,0,.09186,213.84212V328.33383H114.6067A112.9878,112.9878,0,0,0,227.46716,215.47336v-1.63124A112.5292,112.5292,0,0,0,193.92155,133.60815Zm-7.81206,81.86521a71.58265,71.58265,0,0,1-71.50279,71.5028H41.44952v-73.134a71.42586,71.42586,0,0,1,6.13482-28.9963h.02286a71.93545,71.93545,0,0,1,27.84762-31.89137,71.21043,71.21043,0,0,1,37.4975-10.63812h1.65438a72.43925,72.43925,0,0,1,21.483,3.30862c.046.023.092.023.13785.04585h.023c.046,0,.069.023.11486.046.75826.22971,1.49352.48256,2.25179.73527.73526.2527,1.47039.52841,2.18279.82712.55141.22984,1.07983.43655,1.60824.6664.25285.11486.52856.22971.80426.34457a71.94129,71.94129,0,0,1,27.77849,21.62094v.02286a71.13374,71.13374,0,0,1,15.11856,43.90816Z" />
        <path class="cls-2"
          d="M159.38784,19.66786A99.26455,99.26455,0,0,0,99.94769,0H62.0365V41.35767H99.94769a58.4613,58.4613,0,0,1,57.67091,68.12518v.023a58.54416,58.54416,0,0,1-21.3681,36.165h-.023a58.3324,58.3324,0,0,1-55.718,9.32845c-1.70024-.59727-3.37748-1.26368-5.00886-2.02194h-.023l-.02286-.02286a2.057,2.057,0,0,0-.22984-.115,58.82651,58.82651,0,0,1-27.20408-26.1471c-.069-.138-.13785-.25285-.20685-.3907-.20685-.36756-.39056-.73527-.57441-1.10283-.25271-.50555-.48256-1.034-.71227-1.53938-.13785-.25285-.22971-.48256-.3447-.73527v-.023c-.16071-.39056-.29871-.75826-.43656-1.12582A57.61325,57.61325,0,0,1,41.44952,99.8557V64.33415H.09186V99.8557A99.17148,99.17148,0,0,0,15.07257,152.38a.02243.02243,0,0,1,.023.02286c.45956.80426.988,1.56252,1.49339,2.34364a1.28218,1.28218,0,0,1,.115.18385v.023a100.88264,100.88264,0,0,0,14.3833,17.14037A98.6237,98.6237,0,0,0,47.19364,184.57c.16085.115.27571.18385.3447.22985l.046.046h.02286A99.69681,99.69681,0,0,0,170.99093,169.934v-.02286a99.587,99.587,0,0,0,22.90762-36.303v-.02286A99.75488,99.75488,0,0,0,159.38784,19.66786Z" />
        <path class="cls-3"
          d="M170.99093,169.934A99.68815,99.68815,0,0,1,68.19418,194.49582C66.6088,179.3544,76.09809,162.099,80.50954,154.99925a58.3324,58.3324,0,0,0,55.718-9.32845h.023c.046,0,.069.023.11486.046.75826.22971,1.49352.48256,2.25179.73527.73526.2527,1.47039.52841,2.18279.82712.55141.22984,1.07983.43655,1.60824.6664.25285.11486.52856.22971.80426.34457C158.97428,155.57366,170.99093,169.934,170.99093,169.934Z" />
        <path class="cls-4"
          d="M199.78053,99.8557a98.85171,98.85171,0,0,1-5.882,33.72959c-.046-.046-.11485-.092-.20685-.18385-2.22865-1.86109-19.32315-16.08354-33.132-22.63192-.988-.45941-1.976-.87311-2.91806-1.26367h-.023v-.023a57.69336,57.69336,0,0,0,.80426-9.62715,58.47921,58.47921,0,0,0-26.17024-48.733l5.60626-23.55089,21.529-7.90392A99.80173,99.80173,0,0,1,199.78053,99.8557Z" />
        <path class="cls-5"
          d="M16.589,154.74654c-.50541-.78112-1.03383-1.53938-1.49339-2.34364A15.2184,15.2184,0,0,1,16.589,154.74654Z" />
        <path class="cls-6"
          d="M47.58434,184.84582a71.42586,71.42586,0,0,0-6.13482,28.9963v29.80043L.09186,238.6107V213.84212A112.009,112.009,0,0,1,16.704,154.95339c3.05577,6.01983,8.731,12.06265,14.3833,17.14037A152.44695,152.44695,0,0,0,47.19364,184.57c.16085.115.27571.18385.3447.22985Z" />
        <path class="cls-7"
          d="M126.37064,143.3043a68.49425,68.49425,0,0,0-11.76394-.988h-1.65438a71.21043,71.21043,0,0,0-37.4975,10.63812,2.057,2.057,0,0,0-.22984-.115c-2.25165-1.37853-19.27731-11.92479-27.20408-26.1471-.069-.138-.13785-.25285-.20685-.3907-.20685-.36756-.39056-.73527-.57441-1.10283-.25271-.50555-.48256-1.034-.71227-1.53938-.13785-.25285-.22971-.48256-.3447-.73527v-.023a112.21046,112.21046,0,0,1,60.54311-21.78166l16.70381,18.81775Z" />
        <circle class="cls-2" cx="24.1253" cy="24.1253" r="24.1253" />
      </g>
    </g>
  </g>
</svg>